<?xml version="1.0" encoding="utf-8"?>
<svg version="1.1" xmlns="http://www.w3.org/2000/svg" x="0px" y="0px" viewBox="0 0 141.73 141.73" enable-background="new 0 0 141.73 141.73" xml:space="preserve">
<g>
	<g>
		<path fill="#ffffff" d="M113.201,20.474v22.361h9.254V20.474h7.977v-6.823h-25.257v6.823H113.201z M82.798,13.651h-9.253v18.412
			c0,8.155,6.278,11.46,13.832,11.46c7.555,0,13.832-3.305,13.832-11.46V13.651h-9.252v17.64c0,3.305-1.983,4.764-4.58,4.764
			s-4.579-1.459-4.579-4.764V13.651z M47.768,42.835h11.425l10.246-29.185H59.052l-5.478,20.558h-0.189l-5.476-20.558H37.523
			L47.768,42.835z M9.622,28.243c0,9.314,7.224,15.065,16.665,15.065c3.825,0,7.035-0.902,8.97-1.803v-7.339
			c-1.84,0.901-3.966,1.674-7.317,1.674c-3.352,0-8.215-2.318-8.215-7.597s4.438-7.769,8.733-7.769c2.927,0,4.958,0.602,6.752,1.417
			v-7.253c-1.889-0.771-4.25-1.373-8.026-1.373C17.693,13.264,9.622,18.929,9.622,28.243"/>
	</g>
	<polygon fill="#ffffff" points="15.607,6.191 21.65,12.366 30.734,12.366 36.777,6.191 29.28,6.191 26.281,9.159 26.105,9.159
		23.105,6.191"/>
<!--	<g>-->
<!--		<path fill="#ffffff" d="M35.395,101.574v6.665H22.673v4.771h12.579v6.492H22.673v11.308h-9.269v-29.236H35.395z"/>-->
<!--		<path fill="#ffffff" d="M39.939,129.263v-7.653c2.081,1.334,6.384,3.01,10.64,3.01c3.122,0,4.824-0.816,4.824-2.277-->
<!--			c0-1.16-1.183-1.678-2.933-2.063c-2.08-0.474-3.357-0.731-5.769-1.29c-4.351-0.989-7.141-3.828-7.141-8.342-->
<!--			c0-5.934,5.911-9.761,13.903-9.761c3.783,0,7.188,0.688,9.269,1.505v7.267c-1.608-0.816-4.871-1.934-8.796-1.934-->
<!--			c-3.593,0-5.202,0.816-5.202,2.106c0,1.117,0.946,1.676,3.122,2.106c1.607,0.301,2.79,0.472,4.917,0.946-->
<!--			c5.25,1.16,7.945,3.956,7.945,8.727c0,4.858-4.871,9.891-13.667,9.891C46.229,131.5,42.541,130.597,39.939,129.263z"/>-->
<!--		<path fill="#ffffff" d="M65.907,109.312h9.6l3.736,14.319h0.188l3.735-14.319h9.601l-7.094,21.498H72.999L65.907,109.312z"/>-->
<!--	</g>-->
</g>
</svg>
