<svg xmlns="http://www.w3.org/2000/svg" viewBox="0 0 141.73 141.73"><path fill="#fff" d="M113.201 20.474v22.361h9.254V20.474h7.977v-6.823h-25.257v6.823h8.026zm-30.403-6.823h-9.253v18.412c0 8.155 6.278 11.46 13.832 11.46 7.555 0 13.832-3.305 13.832-11.46V13.651h-9.252v17.64c0 3.305-1.983 4.764-4.58 4.764s-4.579-1.459-4.579-4.764v-17.64zm-35.03 29.184h11.425L69.439 13.65H59.052l-5.478 20.558h-.189L47.909 13.65H37.523l10.245 29.185zM9.622 28.243c0 9.314 7.224 15.065 16.665 15.065 3.825 0 7.035-.902 8.97-1.803v-7.339c-1.84.901-3.966 1.674-7.317 1.674-3.352 0-8.215-2.318-8.215-7.597s4.438-7.769 8.733-7.769c2.927 0 4.958.602 6.752 1.417v-7.253c-1.889-.771-4.25-1.373-8.026-1.373-9.491-.001-17.562 5.664-17.562 14.978m5.985-22.052l6.043 6.175h9.084l6.043-6.175H29.28l-2.999 2.968h-.176l-3-2.968zm19.788 95.383v6.665H22.673v4.771h12.579v6.492H22.673v11.308h-9.269v-29.236h21.991zm4.544 27.689v-7.653c2.081 1.334 6.384 3.01 10.64 3.01 3.122 0 4.824-.816 4.824-2.277 0-1.16-1.183-1.678-2.933-2.063-2.08-.474-3.357-.731-5.769-1.29-4.351-.989-7.141-3.828-7.141-8.342 0-5.934 5.911-9.761 13.903-9.761 3.783 0 7.188.688 9.269 1.505v7.267c-1.608-.816-4.871-1.934-8.796-1.934-3.593 0-5.202.816-5.202 2.106 0 1.117.946 1.676 3.122 2.106 1.607.301 2.79.472 4.917.946 5.25 1.16 7.945 3.956 7.945 8.727 0 4.858-4.871 9.891-13.667 9.891-4.822-.001-8.51-.904-11.112-2.238zm25.968-19.951h9.6l3.736 14.319h.188l3.735-14.319h9.601l-7.094 21.498H72.999l-7.092-21.498z"/></svg>