<svg xmlns="http://www.w3.org/2000/svg" viewBox="0 0 512 512"><path fill="#2196f3" d="M352 256c0 22.2-1.2 43.6-3.3 64h-66.9l12.6-42.8c10.7-36.4-23.1-70.3-59.6-59.6l-74.6 21.9c.4-16.3 1.5-32.2 3.1-47.5h185.4c2.2 20.4 3.3 41.8 3.3 64zM20.4 280.6c-7.1 2.1-13.1 5.5-18.1 9.9C.8 279.2 0 267.7 0 256c0-22.1 2.8-43.5 8.1-64h123.1c-1.9 18.4-2.9 37.4-3.1 57L20.4 280.6zm211 211l41-139.6h71.9c-6.1 36.4-15.5 68.6-27 94.6-10.5 23.6-22.2 40.7-33.5 51.5-11.2 10.7-20.5 13.9-27.8 13.9-7.2 0-16.3-3.1-27.3-13.4 1-2.2 1.9-4.6 2.7-7.1zM380.8 192h123.1c5.3 20.5 8.1 41.9 8.1 64s-2.8 43.5-8.1 64H380.8c2.1-20.6 3.2-42 3.2-64s-1.1-43.4-3.2-64zm112.6-32H376.7c-10-63.9-29.8-117.4-55.3-151.6 78.3 20.7 142 77.5 171.9 151.6zm-325.7 0c6.1-36.4 15.5-68.6 27-94.7 10.5-23.6 22.2-40.7 33.5-51.5C239.4 3.2 248.7 0 256 0s16.6 3.2 27.8 13.8c11.3 10.8 23 27.9 33.5 51.5 11.6 26 20.9 58.2 27 94.7H167.7zm-32.4 0H18.6c30-74.1 93.6-130.9 172-151.6-25.5 34.2-45.3 87.7-55.3 151.6zm358.1 192c-30 74.1-93.6 130.9-171.9 151.6 25.5-34.2 45.2-87.7 55.3-151.6h116.6z"/><path fill="#f37e21" d="M243.9 248.3L39 308.5c-13.9 4.1-15.6 23.2-2.6 29.7l57.3 28.7c1.3.7 2.6 1.5 3.7 2.5l-88 88c-12.5 12.5-12.5 32.8 0 45.3s32.8 12.5 45.3 0l88-88c1 1.1 1.9 2.3 2.5 3.7l28.7 57.3c6.5 13 25.6 11.3 29.7-2.6l60.2-204.8c3.6-12.1-7.7-23.4-19.9-19.9z"/></svg>