<svg xmlns="http://www.w3.org/2000/svg" viewBox="0 0 141.73 141.73"><path fill="#fff" d="M114.873 61.461l3.63-2.649c-1.373-1.472-2.846-3.238-2.846-6.083 0-2.159 1.473-4.513 3.337-5.495-.981-1.178-2.551-2.257-4.809-2.257-2.942 0-5.396 2.159-5.396 5.004 0 1.962 1.276 3.63 2.747 4.416 0 2.747 1.276 5.2 3.337 7.064M95.445 42.132l3.042-5.397h-4.514c0 .981-.883 2.061-1.964 2.061-1.177 0-1.961-.785-1.961-2.061h-4.022c0 1.178-.884 2.061-1.963 2.061-1.078 0-1.963-.882-1.963-2.061h-4.513l2.648 5.201a62.726 62.726 0 015.985-.295c3.633 0 6.772.196 9.225.491m-8.241 47.883c-.491-.885-.982-1.964-.982-3.926 0-2.552 1.472-4.709 4.611-6.083 2.062-.982 3.631-1.864 6.379-3.238 6.476-3.337 8.732-9.615 8.732-16.09 0-3.239-.883-5.79-1.964-7.948.295 1.766.59 3.238.59 5.004 0 6.77-2.354 11.774-8.536 14.815-3.926 1.962-5.887 2.748-8.243 3.926-3.335 1.765-5.199 4.021-5.199 6.768 0 3.435 1.765 5.985 4.612 6.772m-3.828-1.277c-1.079-1.08-2.256-3.042-2.256-5.594 0-3.236 2.158-5.985 5.985-7.947 3.336-1.569 5.298-2.354 8.241-3.729 6.182-3.042 8.047-8.241 8.047-13.834 0-5.396-1.768-8.145-3.239-9.91 1.08 2.061 1.374 4.514 1.374 6.574 0 5.985-1.767 11.185-8.731 13.933-3.533 1.472-5.79 1.962-8.832 3.335-4.808 2.259-6.672 4.908-6.672 8.832 0 3.729 2.354 7.26 6.083 8.34m-3.729-.785c-1.668-1.374-3.827-3.629-3.827-7.652 0-4.221 1.768-7.36 7.263-9.714 3.531-1.472 5.396-2.159 8.731-3.434 7.065-2.649 8.537-7.85 8.537-12.951 0-4.907-1.767-7.752-3.926-9.617 1.276 1.57 2.062 4.22 2.062 6.967 0 6.476-2.453 10.105-9.42 12.559-2.846.884-5.887 1.767-9.026 2.944-5.692 2.159-8.636 5.299-8.636 10.597 0 5.493 4.22 9.616 8.242 10.301m-3.924-.685c-3.924-1.964-5.789-6.183-5.789-9.911 0-5.397 3.336-9.223 8.928-11.283 3.435-1.276 6.183-2.061 9.616-3.238 6.673-2.355 8.832-5.496 8.832-11.48 0-3.434-1.276-6.378-3.337-8.046.688.786.884 1.767.884 2.65 0 1.667-.884 2.453-2.159 2.453-.785 0-1.57-.491-1.668-1.275.393.294.687.391 1.078.391 1.081 0 1.668-.784 1.668-1.863 0-1.668-1.569-2.551-3.139-2.747-1.374-.196-2.847-.196-4.515-.196-1.667 0-3.237.098-5.297.196 1.274 1.765 5.493 1.275 6.77 2.158-1.079-.099-2.158-.099-3.238.196 0 .687-.294 1.472-.981 1.472-1.275 0-1.863-1.374-2.747-3.826l-5.004.392c-.784.098-1.079.392-.981.982l.491 4.905c0 .197.196.294.393.294.195 0 .392-.098.49-.392.195-.392.785-1.276 2.257-1.276 2.158 0 3.826 1.963 3.924 4.22-.783-1.08-2.551-2.061-5.493-2.061-2.258 0-4.121.686-7.065.686-3.14 0-4.906-1.177-4.906-2.649 0-.687.098-1.079.491-1.57-1.276.589-2.257 1.668-2.257 3.435 0 2.158 1.57 4.415 6.182 4.415 4.22 0 6.182-2.649 10.008-2.649 1.767 0 2.648.883 2.648 1.863 0 .884-.784 1.668-2.158 1.668-1.668 0-2.845-.882-3.435-1.766-.098-.195-.195-.293-.393-.293-.293 0-.391.196-.391.391l.098 4.711c0 .588.293.883.98.786 2.944-.295 5.985-.688 8.832-.884 5.298-.49 8.928-4.022 8.928-7.947 0-.589 0-1.08-.099-1.668.492.785.688 1.571.688 2.552 0 3.631-1.963 6.377-8.243 8.046-3.336.882-5.788 1.275-8.635 1.962-7.555 1.767-12.461 7.555-12.461 14.031 0 5.982 4.22 11.378 10.205 12.165M42.854 51.846a5.51 5.51 0 00.49-2.257c0-1.275-.588-2.453-1.178-2.944 1.472 0 2.747 1.08 2.747 2.551 0 1.374-.882 2.257-2.059 2.65m18.054 23.351l3.139-1.667c1.08-6.575 5.004-11.186 11.872-12.853-3.63.195-6.77.293-11.185.489-4.71.197-12.461.786-17.858 1.178-1.079.098-1.766-.293-2.061-1.178-.293-.98-.882-2.845-.981-3.924-.098-.883.099-1.472.884-2.061 1.569-1.079 3.139-2.354 3.139-5.003 0-2.846-2.453-4.71-4.709-4.71-.786 0-1.374.099-1.864.295-.589-.393-1.177-.687-2.356-.687-1.667 0-3.139 1.079-3.532 1.962-2.845-.196-5.102 1.865-4.906 4.612.393-.392 1.177-.786 2.061-.786 1.079 0 2.06.786 2.06 1.963 0 1.08-.196 2.453-.196 3.925 0 4.514 3.631 6.869 3.631 9.223 0 1.178-.883 2.159-2.061 2.159.687 2.453 2.943 3.728 5.985 3.728 1.963 0 3.729-.195 6.574-.195 8.144-.001 11.676.882 12.364 3.53m30.22 27.768h.98c-.099-3.139-.882-5.298-2.158-7.555-.687-1.274-1.569-2.649-2.257-3.533-.392-.588-.882-.783-1.472-.783-.393 0-.687.293-.393.783.785 1.276 1.864 3.238 3.238 6.28-1.178.197-1.472.786-1.472 1.767.002 1.569 1.473 3.041 3.534 3.041M39.026 52.238c.098-2.748-1.079-4.22-2.747-4.906.294-.098.687-.294 1.275-.294 1.276 0 2.65 1.08 2.65 2.748.001.881-.294 1.863-1.178 2.452m62.895 69.075c-.393-.883-1.668-1.765-3.237-1.765-.884 0-1.472.195-1.865.391.099-.785.884-1.667 2.454-1.667 1.864 0 2.845 1.472 2.648 3.041m-.589 4.221c-.588-.688-1.57-1.276-2.845-1.276-1.57 0-2.354.687-2.748 1.177-.196-1.177.785-2.649 2.649-2.649 1.964-.001 2.944 1.374 2.944 2.748M31.569 78.729c.688-1.668 2.257-2.845 4.122-3.237a6.546 6.546 0 011.374-1.472l-3.336-13.933c-.393-.981-.687-1.963-.687-3.336 0-1.472.294-2.944.294-3.729 0-.687-.393-.883-.785-.883-.294 0-.491 0-.589.099v.392c0 2.257-1.374 4.022-3.63 4.022-2.257 0-4.024-1.863-4.024-4.022s1.767-3.924 4.024-3.924c.392 0 .883 0 1.472.196.686-1.767 2.845-3.336 5.102-3.042-1.57-1.962-3.924-3.139-6.573-3.139-5.692 0-10.205 4.12-10.205 9.909 0 5.397 4.415 9.714 9.91 9.812l3.531 16.287zm15.209 21.097c1.472 0 3.042-.785 4.514-2.257 2.649-2.552 6.378-6.378 8.634-7.85 1.963-1.274 3.238-1.767 4.513-1.767.786 0 1.374.197 1.962.785l3.336-2.552C65.911 83.34 64.144 79.612 64.046 75c-5.298 2.845-9.125 6.769-13.54 10.499-.786.588-1.178.883-1.865.883s-1.275-.688-2.452-1.864c-.982-.982-1.178-1.57-1.178-2.257 0-1.178.392-1.57.392-3.14 0-3.141-2.452-4.907-4.808-4.907-1.962 0-3.434 1.081-3.925 2.454-2.649.196-4.317 2.158-4.317 4.218 0 .492.098.883.196 1.178-.982.59-1.963 1.767-1.963 3.336 0 1.669.883 3.239 2.354 3.729-.195-.295-.293-.685-.293-1.177 0-.883.785-1.667 1.863-1.667.884 0 1.472.293 2.159 1.077.883 1.18 1.767 2.259 3.238 3.533 1.374 1.178 2.944 1.962 4.416 2.847.883.588 1.57 1.372 1.57 2.55 0 .786-.589 1.669-1.766 1.964.493 1.078 1.474 1.57 2.651 1.57m-5.592-19.134c-.099-1.963-1.57-3.533-3.435-3.925a2.69 2.69 0 011.57-.49c1.374 0 2.454 1.177 2.454 2.452-.001.982-.296 1.472-.589 1.963m10.891 51.612c-.393-.491-.589-.981-.589-1.571 0-1.177.98-2.06 2.354-2.06 2.159 0 3.336 2.354 6.182 2.354 3.238 0 4.808-2.354 7.752-2.354 1.472 0 3.531.883 3.531 2.747 0 .295-.098.59-.293.785 3.334 0 5.691-2.845 5.691-7.556 0-6.572-.197-9.224-.295-12.853 2.551-.098 5.005-1.374 4.611-5.396-.688.588-1.472.883-2.354.883-1.178 0-2.061-.883-2.061-2.159 0-.589 0-1.276.099-1.962l11.479-.295a3.596 3.596 0 01-1.864-3.139c0-.982.394-1.669 1.179-2.062-1.08-2.257-1.963-4.023-3.042-5.69-.589-.883-1.275-1.767-2.65-1.767-3.041-.098-9.222.784-12.362 1.864-2.355.784-4.612 2.551-4.612 6.574 0 3.728 1.276 10.302 1.177 20.605 0 1.472-.393 1.962-1.275 2.157-.785.197-2.845.393-4.121.197-.687-.098-1.275-.588-1.668-2.06-.491-2.062-1.962-4.123-4.906-4.123-2.649 0-5.003 1.964-4.612 4.906-1.275.786-1.864 2.062-1.864 3.238s.392 2.159.883 2.748c-.294.688-.393 1.078-.393 1.766-.001 2.456 2.158 4.223 4.023 4.223M38.242 83.342c-.589-1.177-1.864-1.864-3.336-1.864-.588 0-1.079.098-1.472.195.196-.785 1.079-1.472 2.355-1.472 1.667 0 2.747 1.277 2.453 3.141m17.17 37.971c-.392-.883-1.668-1.765-3.238-1.765-.883 0-1.472.195-1.864.391.099-.785.883-1.667 2.453-1.667 1.864 0 2.845 1.472 2.649 3.041m-8.34 8.538c-.294-.59-.393-1.178-.393-1.767 0-.588.098-1.078.294-1.57a5.985 5.985 0 01-.784-2.943c0-1.472.686-2.845 1.667-3.729l-6.083-26.394c-.982-.49-1.963-1.079-2.748-1.767-1.374-1.177-2.158-2.06-3.434-3.531-.392-.395-.687-.59-1.08-.59-.588 0-.98.393-.784 1.178l1.275 6.082 2.649 1.865 7.359 31.596 2.062 1.57zm7.752-4.317c-.589-.688-1.57-1.276-2.845-1.276-1.57 0-2.356.687-2.749 1.177-.195-1.177.786-2.649 2.65-2.649 1.962-.001 2.944 1.374 2.944 2.748m-48.471 7.358l5.984-4.61 7.359-31.596 2.65-1.865 5.887-25.312-1.276-5.888c-1.472-.295-2.748-.687-3.827-1.276L6.353 132.892zm92.232-.588c-.393-.491-.59-.981-.59-1.571 0-1.177.982-2.06 2.356-2.06 2.158 0 3.336 2.354 6.182 2.354 3.237 0 4.808-2.354 7.751-2.354 1.472 0 3.532.883 3.532 2.747 0 .295-.099.59-.295.785 3.337 0 5.692-2.845 5.692-7.556 0-6.279-.589-13.245-1.277-20.212 1.767-.393 3.436-2.159 3.436-4.416 0-.785-.294-1.667-.786-2.452-.49.688-1.372 1.274-2.845 1.667-2.061.59-4.611.885-6.476.885-4.219 0-5.594-.295-7.556-.885-.099-2.648-1.766-4.807-3.336-6.278 2.453.98 3.532 1.472 7.457 1.472 12.56 0 20.311-8.438 20.311-18.055 0-6.966-4.415-10.204-8.438-12.56l-3.729 2.65c4.514 2.061 7.457 5.101 7.457 9.222 0 4.514-3.63 7.752-7.85 7.752-4.513 0-8.046-3.238-8.046-7.654 0-3.334 1.571-5.787 4.515-8.143 2.943-2.355 7.456-5.201 9.909-7.85 1.276-1.374 2.355-3.532 2.257-5.2 1.669-.786 2.944-2.454 2.944-4.612 0-2.845-2.747-5.004-5.691-5.004-1.767 0-3.729 1.08-4.71 2.257 1.767.687 3.436 3.042 3.436 5.495 0 2.061-1.276 3.826-2.749 5.298-2.256 2.256-5.2 3.925-8.438 6.574-3.925 3.239-6.28 7.065-6.28 11.381 0 5.985 4.612 11.578 11.872 11.578 2.356 0 4.221-.49 5.595-1.374-2.356 2.748-6.771 4.121-11.383 4.121-4.023 0-6.771-.588-9.714-2.747-2.649-1.962-4.71-6.573-4.611-10.009-2.159 1.276-4.711 2.454-6.868 3.436-3.042 1.473-4.023 3.042-4.023 5.69 0 3.532 2.453 6.28 3.532 8.34 1.472 2.649 1.963 5.004 2.159 7.458.588 5.985 4.023 8.731 10.106 8.731 2.746 0 6.377-.197 7.85-.393.588 2.749 1.275 5.985 1.275 8.439 0 1.472-.394 1.962-1.275 2.157-.785.197-2.847.393-4.121.197-.688-.098-1.276-.588-1.669-2.06-.49-2.062-1.962-4.123-4.905-4.123-2.65 0-5.005 1.964-4.612 4.906-1.274.786-1.864 2.062-1.864 3.238s.393 2.159.883 2.748c-.293.688-.392 1.078-.392 1.766-.001 2.457 2.158 4.224 4.022 4.224"/></svg>