<svg xmlns="http://www.w3.org/2000/svg" viewBox="0 0 512 512"><!--! Font Awesome Pro 6.4.0 by @fontawesome - https://fontawesome.com License - https://fontawesome.com/license (Commercial License) Copyright 2023 Fonticons, Inc.--><path d="M154.4 3.9c-6.7-5.8-16.8-5-22.6 1.7s-5 16.8 1.7 22.6L212.7 96H80c-44.2 0-80 35.8-80 80v256c0 44.2 35.8 80 80 80h352c44.2 0 80-35.8 80-80V176c0-44.2-35.8-80-80-80H299.3l79.2-67.9c6.7-5.8 7.5-15.9 1.7-22.6S364.4-2 357.6 3.8L256 90.9l-101.6-87zM256 128h176c26.5 0 48 21.5 48 48v256c0 26.5-21.5 48-48 48H80c-26.5 0-48-21.5-48-48V176c0-26.5 21.5-48 48-48h176zm80 64c8.8 0 16 7.2 16 16v192c0 8.8-7.2 16-16 16H112c-8.8 0-16-7.2-16-16V208c0-8.8 7.2-16 16-16h224zm-224-32c-26.5 0-48 21.5-48 48v192c0 26.5 21.5 48 48 48h224c26.5 0 48-21.5 48-48V208c0-26.5-21.5-48-48-48H112zm320 72a24 24 0 100-48 24 24 0 100 48zm24 40a24 24 0 10-48 0 24 24 0 1048 0z"/></svg>